<?xml version="1.0" encoding="UTF-8" standalone="no"?>
<!-- Created with Inkscape (http://www.inkscape.org/) -->

<svg
   xmlns:dc="http://purl.org/dc/elements/1.1/"
   xmlns:cc="http://creativecommons.org/ns#"
   xmlns:rdf="http://www.w3.org/1999/02/22-rdf-syntax-ns#"
   xmlns:svg="http://www.w3.org/2000/svg"
   xmlns="http://www.w3.org/2000/svg"
   xmlns:sodipodi="http://sodipodi.sourceforge.net/DTD/sodipodi-0.dtd"
   xmlns:inkscape="http://www.inkscape.org/namespaces/inkscape"
   width="25"
   height="25"
   id="svg2"
   version="1.1"
   inkscape:version="0.92.1 r"
   sodipodi:docname="light_icon.svg">
  <defs
     id="defs4" />
  <sodipodi:namedview
     id="base"
     pagecolor="#ffffff"
     bordercolor="#666666"
     borderopacity="1.0"
     inkscape:pageopacity="0.0"
     inkscape:pageshadow="2"
     inkscape:zoom="16"
     inkscape:cx="-5.7008555"
     inkscape:cy="12.457862"
     inkscape:document-units="px"
     inkscape:current-layer="layer1"
     showgrid="true"
     inkscape:showpageshadow="false"
     inkscape:window-width="1920"
     inkscape:window-height="1031"
     inkscape:window-x="0"
     inkscape:window-y="25"
     inkscape:window-maximized="1"
     inkscape:snap-bbox="true"
     inkscape:bbox-nodes="true"
     inkscape:snap-global="true">
    <inkscape:grid
       type="xygrid"
       id="grid4156"
       empspacing="1"
       dotted="true" />
  </sodipodi:namedview>
  <metadata
     id="metadata7">
    <rdf:RDF>
      <cc:Work
         rdf:about="">
        <dc:format>image/svg+xml</dc:format>
        <dc:type
           rdf:resource="http://purl.org/dc/dcmitype/StillImage" />
        <dc:title></dc:title>
      </cc:Work>
    </rdf:RDF>
  </metadata>
  <g
     inkscape:label="Calque 1"
     inkscape:groupmode="layer"
     id="layer1"
     transform="translate(0,-1027.3622)">
    <path
       style="fill:#ffffff;fill-rule:evenodd;stroke:none;stroke-width:0.99999988px;stroke-linecap:butt;stroke-linejoin:miter;stroke-opacity:1"
       d="m 12.499156,1029.3622 -2.269357,4.5388 a 6.3797424,6.3797424 0 0 1 2.269357,-0.4193 6.3797424,6.3797424 0 0 1 2.273916,0.426 z m -7.4232623,3.0759 1.6063229,4.819 a 6.3797424,6.3797424 0 0 1 3.214924,-3.2126 z m 14.8465243,0 -4.818968,1.6064 a 6.3797424,6.3797424 0 0 1 3.212646,3.2149 z m -7.423262,2.757 a 4.6663112,4.6663112 0 0 0 -4.666311,4.6663 4.6663112,4.6663112 0 0 0 4.666311,4.6663 4.6663112,4.6663112 0 0 0 4.666311,-4.6663 4.6663112,4.6663112 0 0 0 -4.666311,-4.6663 z m -5.9536477,2.3924 -4.5455522,2.2739 4.5387167,2.2693 a 6.3797424,6.3797424 0 0 1 -0.4192389,-2.2693 6.3797424,6.3797424 0 0 1 0.4260744,-2.2739 z m 11.9141307,0 a 6.3797424,6.3797424 0 0 1 0.41924,2.2694 6.3797424,6.3797424 0 0 1 -0.426074,2.2738 l 4.545551,-2.2738 z m -11.7774224,4.8715 -1.6063229,4.8212 4.8189686,-1.6065 a 6.3797424,6.3797424 0 0 1 -3.2126457,-3.2147 z m 11.6338794,0 a 6.3797424,6.3797424 0 0 1 -3.214924,3.2125 l 4.821246,1.6063 z m -8.090855,3.3491 2.273915,4.5456 2.269358,-4.5386 a 6.3797424,6.3797424 0 0 1 -2.269358,0.4191 6.3797424,6.3797424 0 0 1 -2.273915,-0.4261 z"
       id="path4486"
       inkscape:connector-curvature="0" />
  </g>
</svg>
